<svg version="1.1" viewBox="0.0 0.0 100.0 100.0" fill="none" stroke="none" stroke-linecap="square" stroke-miterlimit="10" xmlns:xlink="http://www.w3.org/1999/xlink" xmlns="http://www.w3.org/2000/svg"><clipPath id="p.0"><path d="m0 0l100.0 0l0 100.0l-100.0 0l0 -100.0z" clip-rule="nonzero"/></clipPath><g clip-path="url(#p.0)"><path fill="#000000" fill-opacity="0.0" d="m0 0l100.0 0l0 100.0l-100.0 0z" fill-rule="evenodd"/><path fill="#000000" fill-opacity="0.0" d="m0.86614174 0.87664044l98.267715 0l0 98.267715l-98.267715 0z" fill-rule="evenodd"/><path fill="#faf3d6" d="m34.99414 27.75113q7.296875 0 12.4375 4.125q5.140625 4.109375 6.03125 11.28125l-9.109375 0q-0.625 -3.359375 -3.359375 -5.421875q-2.71875 -2.078125 -6.015625 -2.078125q-5.515625 0 -8.578125 4.03125q-3.0625 4.03125 -3.0625 10.6875q0 6.34375 3.03125 10.328125q3.03125 3.984375 8.625 3.984375q4.078125 0 6.59375 -2.5q2.53125 -2.5 3.109375 -7.078125l9.140625 0q-0.8125 8.171875 -5.9375 12.859375q-5.109375 4.671875 -12.90625 4.671875q-6.171875 0 -11.0 -2.828125q-4.8125 -2.828125 -7.4375 -7.984375q-2.625001 -5.15625 -2.625001 -11.453125q0 -9.875 5.765626 -16.25q5.78125 -6.375 15.296875 -6.375zm37.097656 12.015625q6.328125 0 9.765625 2.5q3.453125 2.5 3.921875 7.375l-8.125 0q-0.171875 -2.203125 -1.640625 -3.1875q-1.46875 -1.0 -4.1875 -1.0q-2.453125 0 -3.59375 0.734375q-1.125 0.71875 -1.125 2.125q0 1.4375 1.484375 2.359375q1.484375 0.921875 5.953125 1.78125q7.15625 1.375 9.59375 3.546875q2.453125 2.15625 2.453125 5.671875q0 5.28125 -3.859375 8.03125q-3.84375 2.75 -10.296875 2.75q-6.4375 0 -10.375 -2.734375q-3.9375 -2.734375 -4.203125 -8.1875l8.109375 0q0 2.453125 1.859375 3.84375q1.859375 1.375 4.671875 1.375q2.5 0 4.046875 -1.0625q1.546875 -1.078125 1.546875 -2.890625q0 -1.625 -2.015625 -2.640625q-2.015625 -1.03125 -7.40625 -2.140625q-5.34375 -1.0625 -7.71875 -3.015625q-2.359375 -1.96875 -2.359375 -5.3125q0 -4.921875 3.484375 -7.421875q3.484375 -2.5 10.015625 -2.5z" fill-rule="nonzero"/><path fill="#000000" fill-opacity="0.0" d="m0.86614174 2.8216693l0 0c0 -1.0800081 0.87551945 -1.9555275 1.9555275 -1.9555275l94.35666 0c0.5186386 0 1.016037 0.20602816 1.3827667 0.57276076c0.36673737 0.3667326 0.57276154 0.8641287 0.57276154 1.3827668l0 94.35666c0 1.0800095 -0.8755188 1.9555283 -1.9555283 1.9555283l-94.35666 0c-1.0800081 0 -1.9555275 -0.8755188 -1.9555275 -1.9555283z" fill-rule="evenodd"/><path stroke="#faf3d6" stroke-width="1.0" stroke-linejoin="round" stroke-linecap="butt" d="m0.86614174 2.8216693l0 0c0 -1.0800081 0.87551945 -1.9555275 1.9555275 -1.9555275l94.35666 0c0.5186386 0 1.016037 0.20602816 1.3827667 0.57276076c0.36673737 0.3667326 0.57276154 0.8641287 0.57276154 1.3827668l0 94.35666c0 1.0800095 -0.8755188 1.9555283 -1.9555283 1.9555283l-94.35666 0c-1.0800081 0 -1.9555275 -0.8755188 -1.9555275 -1.9555283z" fill-rule="evenodd"/><path fill="#000000" fill-opacity="0.0" d="m-33.8084 -11.020997l87.02362 0l0 38.267715l-87.02362 0z" fill-rule="evenodd"/><path fill="#faf3d6" d="m8.792538 4.5309854l0 0.796875l-3.0468745 0l-0.40625 2.171875l0.015625 0.015625q0.234375 -0.25 0.59375 -0.390625q0.375 -0.140625 0.8125 -0.140625q1.09375 0 1.7656245 0.6875q0.671875 0.6875005 0.671875 1.8906255q0 1.078125 -0.734375 1.796875q-0.7187495 0.71875 -1.9062495 0.71875q-1.0 0 -1.6875 -0.578125q-0.6875 -0.578125 -0.71875 -1.578125l0 0l0.90625 0q0.046875 0.59375 0.484375 0.984375q0.453125 0.375 1.09375 0.375q0.703125 0 1.15625 -0.46875q0.45312452 -0.484375 0.45312452 -1.328125q0 -0.765625 -0.49999952 -1.234375q-0.484375 -0.46875048 -1.21875 -0.46875048q-0.390625 0 -0.75 0.1875q-0.34375 0.17187548 -0.640625 0.5156255l-0.78125 -0.03125l0.703125 -3.9218755l3.7343745 0zm5.9264984 0l0 0.796875l-3.046875 0l-0.40625 2.171875l0.015625 0.015625q0.234375 -0.25 0.59375 -0.390625q0.375 -0.140625 0.8125 -0.140625q1.09375 0 1.765625 0.6875q0.671875 0.6875005 0.671875 1.8906255q0 1.078125 -0.734375 1.796875q-0.71875 0.71875 -1.90625 0.71875q-1.0 0 -1.6875 -0.578125q-0.6875 -0.578125 -0.71875 -1.578125l0 0l0.90625 0q0.046875 0.59375 0.484375 0.984375q0.453125 0.375 1.09375 0.375q0.703125 0 1.15625 -0.46875q0.453125 -0.484375 0.453125 -1.328125q0 -0.765625 -0.5 -1.234375q-0.484375 -0.46875048 -1.21875 -0.46875048q-0.390625 0 -0.75 0.1875q-0.34375 0.17187548 -0.640625 0.5156255l-0.78125 -0.03125l0.703125 -3.9218755l3.734375 0z" fill-rule="nonzero"/><path fill="#000000" fill-opacity="0.0" d="m6.4881887 60.87664l87.02362 0l0 38.267715l-87.02362 0z" fill-rule="evenodd"/><path fill="#faf3d6" d="m35.996826 76.05363q1.265625 0 2.109375 0.65625q0.859375 0.65625 1.015625 1.828125l-1.0 0q-0.171875 -0.78125 -0.734375 -1.203125q-0.5625 -0.421875 -1.40625 -0.421875q-1.203125 0 -1.890625 0.859375q-0.6875 0.84375 -0.6875 2.21875q0 1.453125 0.671875 2.328125q0.671875 0.859375 1.921875 0.859375q0.921875 0 1.515625 -0.59375q0.609375 -0.59375 0.671875 -1.59375l1.015625 0q-0.15625 1.46875 -1.03125 2.265625q-0.859375 0.78125 -2.265625 0.78125q-1.625 0 -2.578125 -1.078125q-0.9375 -1.09375 -0.9375 -2.890625q0 -1.78125 0.96875 -2.890625q0.984375 -1.125 2.640625 -1.125zm6.6018524 2.15625q1.1875 0 1.84375 0.859375q0.65625 0.859375 0.65625 2.1875l0 0.109375l-4.125 0l0 0.0625q0 0.796875 0.453125 1.28125q0.46875 0.46875 1.265625 0.46875q0.59375 0 0.953125 -0.28125q0.359375 -0.28125 0.46875 -0.796875l0.890625 0q-0.171875 0.921875 -0.796875 1.40625q-0.625 0.46875 -1.546875 0.46875q-0.875 0 -1.484375 -0.390625q-0.59375 -0.390625 -0.875 -1.09375q-0.28125 -0.703125 -0.28125 -1.421875q0 -1.21875 0.734375 -2.03125q0.734375 -0.828125 1.84375 -0.828125zm-1.625 2.359375l3.15625 0q-0.03125 -0.671875 -0.484375 -1.109375q-0.4375 -0.453125 -1.109375 -0.453125q-0.625 0 -1.0625 0.421875q-0.4375 0.421875 -0.5 1.140625zm6.895447 -2.359375q1.109375 0 1.640625 0.4375q0.546875 0.4375 0.609375 1.296875l-0.90625 0l0 -0.015625q-0.046875 -0.4375 -0.390625 -0.671875q-0.34375 -0.25 -0.890625 -0.25q-0.546875 0 -0.859375 0.1875q-0.3125 0.1875 -0.3125 0.515625q0 0.3125 0.28125 0.5q0.28125 0.1875 0.84375 0.3125l0.84375 0.1875q0.796875 0.1875 1.21875 0.546875q0.421875 0.359375 0.421875 0.984375q0 0.8125 -0.640625 1.28125q-0.625 0.453125 -1.703125 0.453125q-1.0625 0 -1.6875 -0.46875q-0.609375 -0.46875 -0.65625 -1.390625l0.90625 0q0.015625 0.515625 0.40625 0.796875q0.390625 0.265625 1.078125 0.265625q0.65625 0 0.984375 -0.203125q0.34375 -0.21875 0.34375 -0.625q0 -0.359375 -0.34375 -0.578125q-0.328125 -0.21875 -1.359375 -0.421875q-1.046875 -0.203125 -1.46875 -0.578125q-0.421875 -0.375 -0.421875 -0.984375q0 -0.734375 0.578125 -1.15625q0.59375 -0.421875 1.484375 -0.421875zm4.453125 -1.96875l0 1.109375l-0.90625 0l0 -1.109375l0.90625 0zm0 2.09375l0 5.515625l-0.90625 0l0 -5.515625l0.90625 0zm2.3206024 0l0 3.765625q0 0.46875 0.296875 0.78125q0.296875 0.296875 0.8125 0.296875q0.78125 0 1.203125 -0.46875q0.4375 -0.484375 0.4375 -1.21875l0 -3.15625l0.90625 0l0 5.515625l-0.859375 0l0 -0.875l-0.015625 0q-0.3125 0.53125 -0.765625 0.765625q-0.453125 0.234375 -1.03125 0.234375q-0.96875 0 -1.4375 -0.484375q-0.453125 -0.5 -0.453125 -1.484375l0 -3.671875l0.90625 0zm7.6608734 -0.125q0.609375 0 0.984375 0.25q0.390625 0.25 0.53125 0.6875q0.28125 -0.4375 0.734375 -0.6875q0.453125 -0.25 1.0 -0.25q0.9375 0 1.375 0.421875q0.453125 0.421875 0.453125 1.140625l0 4.078125l-0.90625 0l0 -3.65625q0 -0.59375 -0.25 -0.890625q-0.25 -0.296875 -0.8125 -0.296875q-0.671875 0 -1.0625 0.40625q-0.375 0.390625 -0.375 0.984375l0 3.453125l-0.90625 0l0 -3.65625q0 -0.59375 -0.25 -0.890625q-0.25 -0.296875 -0.78125 -0.296875q-0.4375 0 -0.765625 0.21875q-0.328125 0.203125 -0.515625 0.5625q-0.1875 0.359375 -0.1875 0.609375l0 3.453125l-0.90625 0l0 -5.515625l0.84375 0l0 0.8125l0.03125 0q0.3125 -0.46875 0.75 -0.703125q0.4375 -0.234375 1.015625 -0.234375z" fill-rule="nonzero"/><path fill="#000000" fill-opacity="0.0" d="m6.4881887 71.16273l87.02362 0l0 38.267715l-87.02362 0z" fill-rule="evenodd"/><path fill="#faf3d6" d="m22.623848 86.527214l0 0.859375l-4.234375 0l0 2.40625l3.953125 0l0 0.859375l-3.953125 0l0 2.625l4.28125 0l0 0.859375l-5.296875 0l0 -7.609375l5.25 0zm2.946762 1.96875q1.109375 0 1.640625 0.4375q0.546875 0.4375 0.609375 1.296875l-0.90625 0l0 -0.015625q-0.046875 -0.4375 -0.390625 -0.671875q-0.34375 -0.25 -0.890625 -0.25q-0.546875 0 -0.859375 0.1875q-0.3125 0.1875 -0.3125 0.515625q0 0.3125 0.28125 0.5q0.28125 0.1875 0.84375 0.3125l0.84375 0.1875q0.796875 0.1875 1.21875 0.546875q0.421875 0.359375 0.421875 0.984375q0 0.8125 -0.640625 1.28125q-0.625 0.453125 -1.703125 0.453125q-1.0625 0 -1.6875 -0.46875q-0.609375 -0.46875 -0.65625 -1.390625l0.90625 0q0.015625 0.515625 0.40625 0.796875q0.390625 0.265625 1.078125 0.265625q0.65625 0 0.984375 -0.203125q0.34375 -0.21875 0.34375 -0.625q0 -0.359375 -0.34375 -0.578125q-0.328125 -0.21875 -1.359375 -0.421875q-1.046875 -0.203125 -1.46875 -0.578125q-0.421875 -0.375 -0.421875 -0.984375q0 -0.734375 0.578125 -1.15625q0.59375 -0.421875 1.484375 -0.421875zm5.796875 0q1.0 0 1.625 0.484375q0.640625 0.484375 0.75 1.421875l-0.9375 0q-0.109375 -0.546875 -0.46875 -0.828125q-0.359375 -0.28125 -0.890625 -0.28125q-0.84375 0 -1.28125 0.578125q-0.4375 0.5625 -0.4375 1.578125q0 0.921875 0.421875 1.46875q0.4375 0.546875 1.1875 0.546875q0.65625 0 1.03125 -0.359375q0.390625 -0.359375 0.484375 -0.984375l0.921875 0q-0.15625 1.03125 -0.78125 1.59375q-0.625 0.546875 -1.65625 0.546875q-1.1875 0 -1.875 -0.75q-0.6875 -0.765625 -0.6875 -2.0625q0 -1.34375 0.6875 -2.140625q0.703125 -0.8125 1.90625 -0.8125zm5.676697 0q1.125 0 1.59375 0.40625q0.46875 0.40625 0.46875 1.078125q0 2.859375 0 3.171875q0 0.3125 0.28125 0.3125q0.0625 0 0.140625 -0.015625q0.078125 -0.015625 0.140625 -0.03125l0 0.703125q-0.125 0.0625 -0.296875 0.09375q-0.15625 0.046875 -0.34375 0.046875q-0.375 0 -0.578125 -0.203125q-0.203125 -0.21875 -0.203125 -0.640625q-0.359375 0.421875 -0.84375 0.640625q-0.484375 0.203125 -1.09375 0.203125q-0.84375 0 -1.328125 -0.390625q-0.484375 -0.40625 -0.484375 -1.15625q0 -0.734375 0.46875 -1.171875q0.46875 -0.4375 2.21875 -0.65625q0.59375 -0.078125 0.796875 -0.21875q0.21875 -0.15625 0.21875 -0.453125q0 -0.46875 -0.296875 -0.6875q-0.28125 -0.234375 -0.921875 -0.234375q-0.671875 0 -1.015625 0.265625q-0.328125 0.25 -0.359375 0.78125l-0.90625 0q0.046875 -0.90625 0.640625 -1.375q0.609375 -0.46875 1.703125 -0.46875zm-1.59375 4.15625q0 0.390625 0.28125 0.609375q0.28125 0.203125 0.78125 0.203125q0.765625 0 1.21875 -0.375q0.46875 -0.390625 0.46875 -0.859375l0 -0.9375q-0.234375 0.15625 -0.609375 0.21875q-0.359375 0.046875 -0.953125 0.140625q-0.609375 0.078125 -0.90625 0.328125q-0.28125 0.234375 -0.28125 0.671875zm7.770447 -4.15625q1.1875 0 1.859375 0.8125q0.6875 0.8125 0.6875 2.09375q0 1.28125 -0.6875 2.078125q-0.671875 0.78125 -1.828125 0.78125q-0.515625 0 -1.015625 -0.203125q-0.484375 -0.21875 -0.765625 -0.65625l-0.015625 0l0 2.84375l-0.90625 0l0 -7.625l0.90625 0l0 0.75l0.015625 0q0.21875 -0.421875 0.671875 -0.640625q0.453125 -0.234375 1.078125 -0.234375zm-1.796875 2.890625q0 0.953125 0.453125 1.515625q0.46875 0.5625 1.28125 0.5625q0.78125 0 1.203125 -0.5625q0.4375 -0.5625 0.4375 -1.5625q0 -0.890625 -0.453125 -1.46875q-0.453125 -0.578125 -1.25 -0.578125q-0.796875 0 -1.234375 0.59375q-0.4375 0.578125 -0.4375 1.5zm7.691742 -2.890625q1.1875 0 1.84375 0.859375q0.65625 0.859375 0.65625 2.1875l0 0.109375l-4.125 0l0 0.0625q0 0.796875 0.453125 1.28125q0.46875 0.46875 1.265625 0.46875q0.59375 0 0.953125 -0.28125q0.359375 -0.28125 0.46875 -0.796875l0.890625 0q-0.171875 0.921875 -0.796875 1.40625q-0.625 0.46875 -1.546875 0.46875q-0.875 0 -1.484375 -0.390625q-0.59375 -0.390625 -0.875 -1.09375q-0.28125 -0.703125 -0.28125 -1.421875q0 -1.21875 0.734375 -2.03125q0.734375 -0.828125 1.84375 -0.828125zm-1.625 2.359375l3.15625 0q-0.03125 -0.671875 -0.484375 -1.109375q-0.4375 -0.453125 -1.109375 -0.453125q-0.625 0 -1.0625 0.421875q-0.4375 0.421875 -0.5 1.140625zm11.418594 -4.515625q1.359375 0 2.21875 0.65625q0.859375 0.640625 1.0625 1.875l-1.015625 0q-0.15625 -0.8125 -0.75 -1.234375q-0.578125 -0.4375 -1.515625 -0.4375q-1.21875 0 -1.921875 0.90625q-0.6875 0.890625 -0.6875 2.328125q0 1.296875 0.71875 2.171875q0.71875 0.859375 1.890625 0.859375q1.09375 0 1.765625 -0.65625q0.6875 -0.65625 0.6875 -1.703125l0 -0.125l-2.4375 0l0 -0.84375l3.328125 0l0 4.0l-0.625 0l-0.28125 -0.953125q-0.40625 0.546875 -1.046875 0.84375q-0.640625 0.296875 -1.390625 0.296875q-1.546875 0 -2.59375 -1.109375q-1.03125 -1.125 -1.03125 -2.734375q0 -1.796875 0.96875 -2.96875q0.984375 -1.171875 2.65625 -1.171875zm6.945221 2.15625q1.125 0 1.59375 0.40625q0.46875 0.40625 0.46875 1.078125q0 2.859375 0 3.171875q0 0.3125 0.28125 0.3125q0.0625 0 0.140625 -0.015625q0.078125 -0.015625 0.140625 -0.03125l0 0.703125q-0.125 0.0625 -0.296875 0.09375q-0.15625 0.046875 -0.34375 0.046875q-0.375 0 -0.578125 -0.203125q-0.203125 -0.21875 -0.203125 -0.640625q-0.359375 0.421875 -0.84375 0.640625q-0.484375 0.203125 -1.09375 0.203125q-0.84375 0 -1.328125 -0.390625q-0.484375 -0.40625 -0.484375 -1.15625q0 -0.734375 0.46875 -1.171875q0.46875 -0.4375 2.21875 -0.65625q0.59375 -0.078125 0.796875 -0.21875q0.21875 -0.15625 0.21875 -0.453125q0 -0.46875 -0.296875 -0.6875q-0.28125 -0.234375 -0.921875 -0.234375q-0.671875 0 -1.015625 0.265625q-0.328125 0.25 -0.359375 0.78125l-0.90625 0q0.046875 -0.90625 0.640625 -1.375q0.609375 -0.46875 1.703125 -0.46875zm-1.59375 4.15625q0 0.390625 0.28125 0.609375q0.28125 0.203125 0.78125 0.203125q0.765625 0 1.21875 -0.375q0.46875 -0.390625 0.46875 -0.859375l0 -0.9375q-0.234375 0.15625 -0.609375 0.21875q-0.359375 0.046875 -0.953125 0.140625q-0.609375 0.078125 -0.90625 0.328125q-0.28125 0.234375 -0.28125 0.671875zm7.707947 -4.15625q0.609375 0 0.984375 0.25q0.390625 0.25 0.53125 0.6875q0.28125 -0.4375 0.734375 -0.6875q0.453125 -0.25 1.0 -0.25q0.9375 0 1.375 0.421875q0.453125 0.421875 0.453125 1.140625l0 4.078125l-0.90625 0l0 -3.65625q0 -0.59375 -0.25 -0.890625q-0.25 -0.296875 -0.8125 -0.296875q-0.671875 0 -1.0625 0.40625q-0.375 0.390625 -0.375 0.984375l0 3.453125l-0.90625 0l0 -3.65625q0 -0.59375 -0.25 -0.890625q-0.25 -0.296875 -0.78125 -0.296875q-0.4375 0 -0.765625 0.21875q-0.328125 0.203125 -0.515625 0.5625q-0.1875 0.359375 -0.1875 0.609375l0 3.453125l-0.90625 0l0 -5.515625l0.84375 0l0 0.8125l0.03125 0q0.3125 -0.46875 0.75 -0.703125q0.4375 -0.234375 1.015625 -0.234375zm8.730698 0q1.1875 0 1.84375 0.859375q0.65625 0.859375 0.65625 2.1875l0 0.109375l-4.125 0l0 0.0625q0 0.796875 0.453125 1.28125q0.46875 0.46875 1.265625 0.46875q0.59375 0 0.953125 -0.28125q0.359375 -0.28125 0.46875 -0.796875l0.890625 0q-0.171875 0.921875 -0.796875 1.40625q-0.625 0.46875 -1.546875 0.46875q-0.875 0 -1.484375 -0.390625q-0.59375 -0.390625 -0.875 -1.09375q-0.28125 -0.703125 -0.28125 -1.421875q0 -1.21875 0.734375 -2.03125q0.734375 -0.828125 1.84375 -0.828125zm-1.625 2.359375l3.15625 0q-0.03125 -0.671875 -0.484375 -1.109375q-0.4375 -0.453125 -1.109375 -0.453125q-0.625 0 -1.0625 0.421875q-0.4375 0.421875 -0.5 1.140625z" fill-rule="nonzero"/></g></svg>